<?xml version="1.0" encoding="UTF-8" standalone="no"?>
<!DOCTYPE svg PUBLIC "-//W3C//DTD SVG 1.1//EN"
 "http://www.w3.org/Graphics/SVG/1.1/DTD/svg11.dtd">
<!-- Generated by graphviz version 2.38.0 (20140413.2041)
 -->
<!-- Title: controllers_diagram Pages: 1 -->
<svg width="802pt" height="625pt"
 viewBox="0.00 0.00 802.13 624.82" xmlns="http://www.w3.org/2000/svg" xmlns:xlink="http://www.w3.org/1999/xlink">
<g id="graph0" class="graph" transform="scale(1 1) rotate(0) translate(291.815 296.593)">
<title>controllers_diagram</title>
<polygon fill="none" stroke="none" points="-291.815,328.224 -291.815,-296.593 510.312,-296.593 510.312,328.224 -291.815,328.224"/>
<!-- _diagram_info -->
<g id="node1" class="node"><title>_diagram_info</title>
<text text-anchor="start" x="296.312" y="-167.1" font-family="Times,serif" font-size="13.00">Controllers diagram</text>
<text text-anchor="start" x="296.312" y="-154.1" font-family="Times,serif" font-size="13.00">Date: Sep 23 2015 &#45; 11:47</text>
<text text-anchor="start" x="296.312" y="-141.1" font-family="Times,serif" font-size="13.00">Migration version: 20150922032855</text>
<text text-anchor="start" x="296.312" y="-128.1" font-family="Times,serif" font-size="13.00">Generated by RailRoady 1.3.1</text>
<text text-anchor="start" x="296.312" y="-115.1" font-family="Times,serif" font-size="13.00">http://railroady.prestonlee.com</text>
</g>
<!-- AccountActivationsController -->
<g id="node2" class="node"><title>AccountActivationsController</title>
<path fill="none" stroke="black" d="M-275.815,49.4411C-275.815,49.4411 -114.297,49.4411 -114.297,49.4411 -108.297,49.4411 -102.297,43.4411 -102.297,37.4411 -102.297,37.4411 -102.297,-28.5589 -102.297,-28.5589 -102.297,-34.5589 -108.297,-40.5589 -114.297,-40.5589 -114.297,-40.5589 -275.815,-40.5589 -275.815,-40.5589 -281.815,-40.5589 -287.815,-34.5589 -287.815,-28.5589 -287.815,-28.5589 -287.815,37.4411 -287.815,37.4411 -287.815,43.4411 -281.815,49.4411 -275.815,49.4411"/>
<text text-anchor="middle" x="-195.056" y="-25.3589" font-family="Times,serif" font-size="14.00">AccountActivationsController</text>
<polyline fill="none" stroke="black" points="-287.815,-18.5589 -102.297,-18.5589 "/>
<text text-anchor="start" x="-279.815" y="-3.35885" font-family="Times,serif" font-size="14.00">edit</text>
<polyline fill="none" stroke="black" points="-287.815,3.44115 -102.297,3.44115 "/>
<polyline fill="none" stroke="black" points="-287.815,27.4411 -102.297,27.4411 "/>
<text text-anchor="start" x="-279.815" y="42.6411" font-family="Times,serif" font-size="14.00">_layout</text>
</g>
<!-- ApplicationController -->
<g id="node3" class="node"><title>ApplicationController</title>
<path fill="none" stroke="black" d="M-77.6269,53.6644C-77.6269,53.6644 38.0147,53.6644 38.0147,53.6644 44.0147,53.6644 50.0147,47.6644 50.0147,41.6644 50.0147,41.6644 50.0147,-24.3356 50.0147,-24.3356 50.0147,-30.3356 44.0147,-36.3356 38.0147,-36.3356 38.0147,-36.3356 -77.6269,-36.3356 -77.6269,-36.3356 -83.6269,-36.3356 -89.6269,-30.3356 -89.6269,-24.3356 -89.6269,-24.3356 -89.6269,41.6644 -89.6269,41.6644 -89.6269,47.6644 -83.6269,53.6644 -77.6269,53.6644"/>
<text text-anchor="middle" x="-19.8061" y="-21.1356" font-family="Times,serif" font-size="14.00">ApplicationController</text>
<polyline fill="none" stroke="black" points="-89.6269,-14.3356 50.0147,-14.3356 "/>
<text text-anchor="start" x="-81.6269" y="0.864367" font-family="Times,serif" font-size="14.00">logged_in_user</text>
<polyline fill="none" stroke="black" points="-89.6269,7.66437 50.0147,7.66437 "/>
<polyline fill="none" stroke="black" points="-89.6269,31.6644 50.0147,31.6644 "/>
<text text-anchor="start" x="-81.6269" y="46.8644" font-family="Times,serif" font-size="14.00">_layout</text>
</g>
<!-- ApplicationController&#45;&gt;AccountActivationsController -->
<g id="edge1" class="edge"><title>ApplicationController&#45;&gt;AccountActivationsController</title>
<path fill="none" stroke="black" d="M-89.8251,6.97703C-93.9247,6.87824 -98.0779,6.77815 -102.247,6.67769"/>
</g>
<!-- BeersController -->
<g id="node4" class="node"><title>BeersController</title>
<path fill="none" stroke="black" d="M112.972,323.724C112.972,323.724 194.393,323.724 194.393,323.724 200.393,323.724 206.393,317.724 206.393,311.724 206.393,311.724 206.393,119.724 206.393,119.724 206.393,113.724 200.393,107.724 194.393,107.724 194.393,107.724 112.972,107.724 112.972,107.724 106.972,107.724 100.972,113.724 100.972,119.724 100.972,119.724 100.972,311.724 100.972,311.724 100.972,317.724 106.972,323.724 112.972,323.724"/>
<text text-anchor="middle" x="153.683" y="122.924" font-family="Times,serif" font-size="14.00">BeersController</text>
<polyline fill="none" stroke="black" points="100.972,129.724 206.393,129.724 "/>
<text text-anchor="start" x="108.972" y="144.924" font-family="Times,serif" font-size="14.00">create</text>
<text text-anchor="start" x="108.972" y="158.924" font-family="Times,serif" font-size="14.00">destroy</text>
<text text-anchor="start" x="108.972" y="172.924" font-family="Times,serif" font-size="14.00">edit</text>
<text text-anchor="start" x="108.972" y="186.924" font-family="Times,serif" font-size="14.00">index</text>
<text text-anchor="start" x="108.972" y="200.924" font-family="Times,serif" font-size="14.00">new</text>
<text text-anchor="start" x="108.972" y="214.924" font-family="Times,serif" font-size="14.00">search</text>
<text text-anchor="start" x="108.972" y="228.924" font-family="Times,serif" font-size="14.00">show</text>
<text text-anchor="start" x="108.972" y="242.924" font-family="Times,serif" font-size="14.00">update</text>
<polyline fill="none" stroke="black" points="100.972,249.724 206.393,249.724 "/>
<polyline fill="none" stroke="black" points="100.972,273.724 206.393,273.724 "/>
<text text-anchor="start" x="108.972" y="288.924" font-family="Times,serif" font-size="14.00">_layout</text>
<text text-anchor="start" x="108.972" y="302.924" font-family="Times,serif" font-size="14.00">admin_user</text>
<text text-anchor="start" x="108.972" y="316.924" font-family="Times,serif" font-size="14.00">beer_params</text>
</g>
<!-- ApplicationController&#45;&gt;BeersController -->
<g id="edge2" class="edge"><title>ApplicationController&#45;&gt;BeersController</title>
<path fill="none" stroke="black" d="M18.0524,53.8486C42.2799,82.7643 74.0615,120.696 100.769,152.572"/>
</g>
<!-- MeetingsController -->
<g id="node5" class="node"><title>MeetingsController</title>
<path fill="none" stroke="black" d="M-63.35,-90.0928C-63.35,-90.0928 38.2984,-90.0928 38.2984,-90.0928 44.2984,-90.0928 50.2984,-96.0928 50.2984,-102.093 50.2984,-102.093 50.2984,-280.093 50.2984,-280.093 50.2984,-286.093 44.2984,-292.093 38.2984,-292.093 38.2984,-292.093 -63.35,-292.093 -63.35,-292.093 -69.35,-292.093 -75.35,-286.093 -75.35,-280.093 -75.35,-280.093 -75.35,-102.093 -75.35,-102.093 -75.35,-96.0928 -69.35,-90.0928 -63.35,-90.0928"/>
<text text-anchor="middle" x="-12.5258" y="-276.893" font-family="Times,serif" font-size="14.00">MeetingsController</text>
<polyline fill="none" stroke="black" points="-75.35,-270.093 50.2984,-270.093 "/>
<text text-anchor="start" x="-67.35" y="-254.893" font-family="Times,serif" font-size="14.00">create</text>
<text text-anchor="start" x="-67.35" y="-240.893" font-family="Times,serif" font-size="14.00">destroy</text>
<text text-anchor="start" x="-67.35" y="-226.893" font-family="Times,serif" font-size="14.00">edit</text>
<text text-anchor="start" x="-67.35" y="-212.893" font-family="Times,serif" font-size="14.00">index</text>
<text text-anchor="start" x="-67.35" y="-198.893" font-family="Times,serif" font-size="14.00">new</text>
<text text-anchor="start" x="-67.35" y="-184.893" font-family="Times,serif" font-size="14.00">show</text>
<text text-anchor="start" x="-67.35" y="-170.893" font-family="Times,serif" font-size="14.00">update</text>
<polyline fill="none" stroke="black" points="-75.35,-164.093 50.2984,-164.093 "/>
<polyline fill="none" stroke="black" points="-75.35,-140.093 50.2984,-140.093 "/>
<text text-anchor="start" x="-67.35" y="-124.893" font-family="Times,serif" font-size="14.00">_layout</text>
<text text-anchor="start" x="-67.35" y="-110.893" font-family="Times,serif" font-size="14.00">admin_user</text>
<text text-anchor="start" x="-67.35" y="-96.8928" font-family="Times,serif" font-size="14.00">meeting_params</text>
</g>
<!-- ApplicationController&#45;&gt;MeetingsController -->
<g id="edge3" class="edge"><title>ApplicationController&#45;&gt;MeetingsController</title>
<path fill="none" stroke="black" d="M-18.1541,-36.6636C-17.5752,-52.5489 -16.8994,-71.0899 -16.2211,-89.7009"/>
</g>
<!-- PasswordResetsController -->
<g id="node6" class="node"><title>PasswordResetsController</title>
<path fill="none" stroke="black" d="M89.7015,-90.5406C89.7015,-90.5406 229.467,-90.5406 229.467,-90.5406 235.467,-90.5406 241.467,-96.5406 241.467,-102.541 241.467,-102.541 241.467,-266.541 241.467,-266.541 241.467,-272.541 235.467,-278.541 229.467,-278.541 229.467,-278.541 89.7015,-278.541 89.7015,-278.541 83.7015,-278.541 77.7015,-272.541 77.7015,-266.541 77.7015,-266.541 77.7015,-102.541 77.7015,-102.541 77.7015,-96.5406 83.7015,-90.5406 89.7015,-90.5406"/>
<text text-anchor="middle" x="159.584" y="-263.341" font-family="Times,serif" font-size="14.00">PasswordResetsController</text>
<polyline fill="none" stroke="black" points="77.7015,-256.541 241.467,-256.541 "/>
<text text-anchor="start" x="85.7015" y="-241.341" font-family="Times,serif" font-size="14.00">create</text>
<text text-anchor="start" x="85.7015" y="-227.341" font-family="Times,serif" font-size="14.00">edit</text>
<text text-anchor="start" x="85.7015" y="-213.341" font-family="Times,serif" font-size="14.00">new</text>
<text text-anchor="start" x="85.7015" y="-199.341" font-family="Times,serif" font-size="14.00">update</text>
<polyline fill="none" stroke="black" points="77.7015,-192.541 241.467,-192.541 "/>
<polyline fill="none" stroke="black" points="77.7015,-168.541 241.467,-168.541 "/>
<text text-anchor="start" x="85.7015" y="-153.341" font-family="Times,serif" font-size="14.00">_layout</text>
<text text-anchor="start" x="85.7015" y="-139.341" font-family="Times,serif" font-size="14.00">check_expiration</text>
<text text-anchor="start" x="85.7015" y="-125.341" font-family="Times,serif" font-size="14.00">get_user</text>
<text text-anchor="start" x="85.7015" y="-111.341" font-family="Times,serif" font-size="14.00">user_params</text>
<text text-anchor="start" x="85.7015" y="-97.3406" font-family="Times,serif" font-size="14.00">valid_user</text>
</g>
<!-- ApplicationController&#45;&gt;PasswordResetsController -->
<g id="edge4" class="edge"><title>ApplicationController&#45;&gt;PasswordResetsController</title>
<path fill="none" stroke="black" d="M22.253,-36.6336C38.8225,-54.4791 58.4473,-75.6152 77.5998,-96.2425"/>
</g>
<!-- ReviewsController -->
<g id="node7" class="node"><title>ReviewsController</title>
<path fill="none" stroke="black" d="M-240.213,-98.5667C-240.213,-98.5667 -142.454,-98.5667 -142.454,-98.5667 -136.454,-98.5667 -130.454,-104.567 -130.454,-110.567 -130.454,-110.567 -130.454,-274.567 -130.454,-274.567 -130.454,-280.567 -136.454,-286.567 -142.454,-286.567 -142.454,-286.567 -240.213,-286.567 -240.213,-286.567 -246.213,-286.567 -252.213,-280.567 -252.213,-274.567 -252.213,-274.567 -252.213,-110.567 -252.213,-110.567 -252.213,-104.567 -246.213,-98.5667 -240.213,-98.5667"/>
<text text-anchor="middle" x="-191.333" y="-271.367" font-family="Times,serif" font-size="14.00">ReviewsController</text>
<polyline fill="none" stroke="black" points="-252.213,-264.567 -130.454,-264.567 "/>
<text text-anchor="start" x="-244.213" y="-249.367" font-family="Times,serif" font-size="14.00">create</text>
<text text-anchor="start" x="-244.213" y="-235.367" font-family="Times,serif" font-size="14.00">destroy</text>
<text text-anchor="start" x="-244.213" y="-221.367" font-family="Times,serif" font-size="14.00">edit</text>
<text text-anchor="start" x="-244.213" y="-207.367" font-family="Times,serif" font-size="14.00">new</text>
<text text-anchor="start" x="-244.213" y="-193.367" font-family="Times,serif" font-size="14.00">update</text>
<polyline fill="none" stroke="black" points="-252.213,-186.567 -130.454,-186.567 "/>
<polyline fill="none" stroke="black" points="-252.213,-162.567 -130.454,-162.567 "/>
<text text-anchor="start" x="-244.213" y="-147.367" font-family="Times,serif" font-size="14.00">_layout</text>
<text text-anchor="start" x="-244.213" y="-133.367" font-family="Times,serif" font-size="14.00">review_params</text>
<text text-anchor="start" x="-244.213" y="-119.367" font-family="Times,serif" font-size="14.00">set_beer</text>
<text text-anchor="start" x="-244.213" y="-105.367" font-family="Times,serif" font-size="14.00">set_review</text>
</g>
<!-- ApplicationController&#45;&gt;ReviewsController -->
<g id="edge5" class="edge"><title>ApplicationController&#45;&gt;ReviewsController</title>
<path fill="none" stroke="black" d="M-58.3002,-36.4958C-79.5364,-61.4096 -106.396,-92.9204 -130.411,-121.095"/>
</g>
<!-- SessionsController -->
<g id="node8" class="node"><title>SessionsController</title>
<path fill="none" stroke="black" d="M-245.831,267.004C-245.831,267.004 -148.052,267.004 -148.052,267.004 -142.052,267.004 -136.052,261.004 -136.052,255.004 -136.052,255.004 -136.052,161.004 -136.052,161.004 -136.052,155.004 -142.052,149.004 -148.052,149.004 -148.052,149.004 -245.831,149.004 -245.831,149.004 -251.831,149.004 -257.831,155.004 -257.831,161.004 -257.831,161.004 -257.831,255.004 -257.831,255.004 -257.831,261.004 -251.831,267.004 -245.831,267.004"/>
<text text-anchor="middle" x="-196.941" y="164.204" font-family="Times,serif" font-size="14.00">SessionsController</text>
<polyline fill="none" stroke="black" points="-257.831,171.004 -136.052,171.004 "/>
<text text-anchor="start" x="-249.831" y="186.204" font-family="Times,serif" font-size="14.00">create</text>
<text text-anchor="start" x="-249.831" y="200.204" font-family="Times,serif" font-size="14.00">destroy</text>
<text text-anchor="start" x="-249.831" y="214.204" font-family="Times,serif" font-size="14.00">new</text>
<polyline fill="none" stroke="black" points="-257.831,221.004 -136.052,221.004 "/>
<polyline fill="none" stroke="black" points="-257.831,245.004 -136.052,245.004 "/>
<text text-anchor="start" x="-249.831" y="260.204" font-family="Times,serif" font-size="14.00">_layout</text>
</g>
<!-- ApplicationController&#45;&gt;SessionsController -->
<g id="edge6" class="edge"><title>ApplicationController&#45;&gt;SessionsController</title>
<path fill="none" stroke="black" d="M-60.0009,53.8977C-85.0092,82.0409 -117.44,118.537 -144.463,148.948"/>
</g>
<!-- StaticPagesController -->
<g id="node9" class="node"><title>StaticPagesController</title>
<path fill="none" stroke="black" d="M98.6042,71.5034C98.6042,71.5034 212.694,71.5034 212.694,71.5034 218.694,71.5034 224.694,65.5034 224.694,59.5034 224.694,59.5034 224.694,-20.4966 224.694,-20.4966 224.694,-26.4966 218.694,-32.4966 212.694,-32.4966 212.694,-32.4966 98.6042,-32.4966 98.6042,-32.4966 92.6042,-32.4966 86.6042,-26.4966 86.6042,-20.4966 86.6042,-20.4966 86.6042,59.5034 86.6042,59.5034 86.6042,65.5034 92.6042,71.5034 98.6042,71.5034"/>
<text text-anchor="middle" x="155.649" y="-17.2966" font-family="Times,serif" font-size="14.00">StaticPagesController</text>
<polyline fill="none" stroke="black" points="86.6042,-10.4966 224.694,-10.4966 "/>
<text text-anchor="start" x="94.6042" y="4.70341" font-family="Times,serif" font-size="14.00">contact</text>
<text text-anchor="start" x="94.6042" y="18.7034" font-family="Times,serif" font-size="14.00">home</text>
<polyline fill="none" stroke="black" points="86.6042,25.5034 224.694,25.5034 "/>
<polyline fill="none" stroke="black" points="86.6042,49.5034 224.694,49.5034 "/>
<text text-anchor="start" x="94.6042" y="64.7034" font-family="Times,serif" font-size="14.00">_layout</text>
</g>
<!-- ApplicationController&#45;&gt;StaticPagesController -->
<g id="edge7" class="edge"><title>ApplicationController&#45;&gt;StaticPagesController</title>
<path fill="none" stroke="black" d="M50.0426,12.9794C61.9881,13.7173 74.3955,14.4838 86.3272,15.2209"/>
</g>
<!-- UsersController -->
<g id="node10" class="node"><title>UsersController</title>
<path fill="none" stroke="black" d="M-64.5696,318.713C-64.5696,318.713 16.8581,318.713 16.8581,318.713 22.8581,318.713 28.8581,312.713 28.8581,306.713 28.8581,306.713 28.8581,114.713 28.8581,114.713 28.8581,108.713 22.8581,102.713 16.8581,102.713 16.8581,102.713 -64.5696,102.713 -64.5696,102.713 -70.5696,102.713 -76.5696,108.713 -76.5696,114.713 -76.5696,114.713 -76.5696,306.713 -76.5696,306.713 -76.5696,312.713 -70.5696,318.713 -64.5696,318.713"/>
<text text-anchor="middle" x="-23.8557" y="117.913" font-family="Times,serif" font-size="14.00">UsersController</text>
<polyline fill="none" stroke="black" points="-76.5696,124.713 28.8581,124.713 "/>
<text text-anchor="start" x="-68.5696" y="139.913" font-family="Times,serif" font-size="14.00">create</text>
<text text-anchor="start" x="-68.5696" y="153.913" font-family="Times,serif" font-size="14.00">destroy</text>
<text text-anchor="start" x="-68.5696" y="167.913" font-family="Times,serif" font-size="14.00">edit</text>
<text text-anchor="start" x="-68.5696" y="181.913" font-family="Times,serif" font-size="14.00">index</text>
<text text-anchor="start" x="-68.5696" y="195.913" font-family="Times,serif" font-size="14.00">new</text>
<text text-anchor="start" x="-68.5696" y="209.913" font-family="Times,serif" font-size="14.00">show</text>
<text text-anchor="start" x="-68.5696" y="223.913" font-family="Times,serif" font-size="14.00">update</text>
<polyline fill="none" stroke="black" points="-76.5696,230.713 28.8581,230.713 "/>
<polyline fill="none" stroke="black" points="-76.5696,254.713 28.8581,254.713 "/>
<text text-anchor="start" x="-68.5696" y="269.913" font-family="Times,serif" font-size="14.00">_layout</text>
<text text-anchor="start" x="-68.5696" y="283.913" font-family="Times,serif" font-size="14.00">admin_user</text>
<text text-anchor="start" x="-68.5696" y="297.913" font-family="Times,serif" font-size="14.00">correct_user</text>
<text text-anchor="start" x="-68.5696" y="311.913" font-family="Times,serif" font-size="14.00">user_params</text>
</g>
<!-- ApplicationController&#45;&gt;UsersController -->
<g id="edge8" class="edge"><title>ApplicationController&#45;&gt;UsersController</title>
<path fill="none" stroke="black" d="M-20.7099,53.7566C-21.0036,68.4111 -21.3433,85.3585 -21.6885,102.583"/>
</g>
<!-- WebConsole::ApplicationController -->
<g id="node11" class="node"><title>WebConsole::ApplicationController</title>
<path fill="none" stroke="black" d="M299.688,71C299.688,71 494.312,71 494.312,71 500.312,71 506.312,65 506.312,59 506.312,59 506.312,-23 506.312,-23 506.312,-29 500.312,-35 494.312,-35 494.312,-35 299.688,-35 299.688,-35 293.688,-35 287.688,-29 287.688,-23 287.688,-23 287.688,59 287.688,59 287.688,65 293.688,71 299.688,71"/>
<text text-anchor="middle" x="397" y="-19.8" font-family="Times,serif" font-size="14.00">WebConsole::ApplicationController</text>
<polyline fill="none" stroke="black" points="287.688,-13 506.312,-13 "/>
<polyline fill="none" stroke="black" points="287.688,11 506.312,11 "/>
<polyline fill="none" stroke="black" points="287.688,35 506.312,35 "/>
<text text-anchor="start" x="295.688" y="50.2" font-family="Times,serif" font-size="14.00">_layout</text>
<text text-anchor="start" x="295.688" y="64.2" font-family="Times,serif" font-size="14.00">prevent_unauthorized_requests!</text>
</g>
<!-- WebConsole::ConsoleSessionsController -->
<g id="node12" class="node"><title>WebConsole::ConsoleSessionsController</title>
<path fill="none" stroke="black" d="M263.674,287C263.674,287 486.326,287 486.326,287 492.326,287 498.326,281 498.326,275 498.326,275 498.326,153 498.326,153 498.326,147 492.326,141 486.326,141 486.326,141 263.674,141 263.674,141 257.674,141 251.674,147 251.674,153 251.674,153 251.674,275 251.674,275 251.674,281 257.674,287 263.674,287"/>
<text text-anchor="middle" x="375" y="156.2" font-family="Times,serif" font-size="14.00">WebConsole::ConsoleSessionsController</text>
<polyline fill="none" stroke="black" points="251.674,163 498.326,163 "/>
<text text-anchor="start" x="259.674" y="178.2" font-family="Times,serif" font-size="14.00">configuration</text>
<text text-anchor="start" x="259.674" y="192.2" font-family="Times,serif" font-size="14.00">index</text>
<text text-anchor="start" x="259.674" y="206.2" font-family="Times,serif" font-size="14.00">input</text>
<text text-anchor="start" x="259.674" y="220.2" font-family="Times,serif" font-size="14.00">pending_output</text>
<polyline fill="none" stroke="black" points="251.674,227 498.326,227 "/>
<polyline fill="none" stroke="black" points="251.674,251 498.326,251 "/>
<text text-anchor="start" x="259.674" y="266.2" font-family="Times,serif" font-size="14.00">_layout</text>
<text text-anchor="start" x="259.674" y="280.2" font-family="Times,serif" font-size="14.00">console_session_params</text>
</g>
</g>
</svg>
