<?xml version="1.0" encoding="UTF-8" standalone="no"?>
<!DOCTYPE svg PUBLIC "-//W3C//DTD SVG 1.1//EN"
 "http://www.w3.org/Graphics/SVG/1.1/DTD/svg11.dtd">
<!-- Generated by graphviz version 2.38.0 (20140413.2041)
 -->
<!-- Title: models_diagram Pages: 1 -->
<svg width="669pt" height="993pt"
 viewBox="0.00 0.00 668.52 993.00" xmlns="http://www.w3.org/2000/svg" xmlns:xlink="http://www.w3.org/1999/xlink">
<g id="graph0" class="graph" transform="scale(1 1) rotate(0) translate(4 989)">
<title>models_diagram</title>
<polygon fill="none" stroke="none" points="-4,4 -4,-989 664.517,-989 664.517,4 -4,4"/>
<!-- _diagram_info -->
<g id="node1" class="node"><title>_diagram_info</title>
<text text-anchor="start" x="8" y="-970.6" font-family="Times,serif" font-size="13.00">Models diagram</text>
<text text-anchor="start" x="8" y="-957.6" font-family="Times,serif" font-size="13.00">Date: Sep 23 2015 &#45; 11:47</text>
<text text-anchor="start" x="8" y="-944.6" font-family="Times,serif" font-size="13.00">Migration version: 20150922032855</text>
<text text-anchor="start" x="8" y="-931.6" font-family="Times,serif" font-size="13.00">Generated by RailRoady 1.3.1</text>
<text text-anchor="start" x="8" y="-918.6" font-family="Times,serif" font-size="13.00">http://railroady.prestonlee.com</text>
</g>
<!-- Beer -->
<g id="node2" class="node"><title>Beer</title>
<path fill="none" stroke="black" d="M299.182,-691.5C299.182,-691.5 408.193,-691.5 408.193,-691.5 414.193,-691.5 420.193,-697.5 420.193,-703.5 420.193,-703.5 420.193,-863.5 420.193,-863.5 420.193,-869.5 414.193,-875.5 408.193,-875.5 408.193,-875.5 299.182,-875.5 299.182,-875.5 293.182,-875.5 287.182,-869.5 287.182,-863.5 287.182,-863.5 287.182,-703.5 287.182,-703.5 287.182,-697.5 293.182,-691.5 299.182,-691.5"/>
<text text-anchor="middle" x="353.688" y="-860.3" font-family="Times,serif" font-size="14.00">Beer</text>
<polyline fill="none" stroke="black" points="287.182,-853.5 420.193,-853.5 "/>
<text text-anchor="start" x="295.182" y="-838.3" font-family="Times,serif" font-size="14.00">id :integer</text>
<text text-anchor="start" x="295.182" y="-824.3" font-family="Times,serif" font-size="14.00">name :string</text>
<text text-anchor="start" x="295.182" y="-810.3" font-family="Times,serif" font-size="14.00">style :string</text>
<text text-anchor="start" x="295.182" y="-796.3" font-family="Times,serif" font-size="14.00">brewery :string</text>
<text text-anchor="start" x="295.182" y="-782.3" font-family="Times,serif" font-size="14.00">brewery_url :string</text>
<text text-anchor="start" x="295.182" y="-768.3" font-family="Times,serif" font-size="14.00">description :text</text>
<text text-anchor="start" x="295.182" y="-754.3" font-family="Times,serif" font-size="14.00">alcohol :decimal</text>
<text text-anchor="start" x="295.182" y="-740.3" font-family="Times,serif" font-size="14.00">picture :string</text>
<text text-anchor="start" x="295.182" y="-726.3" font-family="Times,serif" font-size="14.00">created_at :datetime</text>
<text text-anchor="start" x="295.182" y="-712.3" font-family="Times,serif" font-size="14.00">updated_at :datetime</text>
<text text-anchor="start" x="295.182" y="-698.3" font-family="Times,serif" font-size="14.00">drunk_on :date</text>
</g>
<!-- Meeting -->
<g id="node3" class="node"><title>Meeting</title>
<path fill="none" stroke="black" d="M220.955,-540.5C220.955,-540.5 370.421,-540.5 370.421,-540.5 376.421,-540.5 382.421,-546.5 382.421,-552.5 382.421,-552.5 382.421,-642.5 382.421,-642.5 382.421,-648.5 376.421,-654.5 370.421,-654.5 370.421,-654.5 220.955,-654.5 220.955,-654.5 214.955,-654.5 208.955,-648.5 208.955,-642.5 208.955,-642.5 208.955,-552.5 208.955,-552.5 208.955,-546.5 214.955,-540.5 220.955,-540.5"/>
<text text-anchor="middle" x="295.688" y="-639.3" font-family="Times,serif" font-size="14.00">Meeting</text>
<polyline fill="none" stroke="black" points="208.955,-632.5 382.421,-632.5 "/>
<text text-anchor="start" x="216.955" y="-617.3" font-family="Times,serif" font-size="14.00">id :integer</text>
<text text-anchor="start" x="216.955" y="-603.3" font-family="Times,serif" font-size="14.00">date :date</text>
<text text-anchor="start" x="216.955" y="-589.3" font-family="Times,serif" font-size="14.00">comments :text</text>
<text text-anchor="start" x="216.955" y="-575.3" font-family="Times,serif" font-size="14.00">created_at :datetime</text>
<text text-anchor="start" x="216.955" y="-561.3" font-family="Times,serif" font-size="14.00">updated_at :datetime</text>
<text text-anchor="start" x="216.955" y="-547.3" font-family="Times,serif" font-size="14.00">meeting_background :string</text>
</g>
<!-- Beer&#45;&gt;Meeting -->
<g id="edge2" class="edge"><title>Beer&#45;&gt;Meeting</title>
<path fill="none" stroke="#8321ae" d="M321.884,-681.605C320.055,-675.803 318.241,-670.048 316.471,-664.434"/>
<polygon fill="#8321ae" stroke="#8321ae" points="321.936,-681.771 320.651,-692.661 323.439,-686.54 324.943,-691.309 324.943,-691.309 324.943,-691.309 323.439,-686.54 329.234,-689.956 321.936,-681.771 321.936,-681.771"/>
<polygon fill="#8321ae" stroke="#8321ae" points="316.347,-664.039 317.632,-653.149 314.844,-659.271 313.341,-654.502 313.341,-654.502 313.341,-654.502 314.844,-659.271 309.049,-655.855 316.347,-664.039 316.347,-664.039"/>
</g>
<!-- Review -->
<g id="node4" class="node"><title>Review</title>
<path fill="none" stroke="black" d="M356.182,-0.5C356.182,-0.5 465.193,-0.5 465.193,-0.5 471.193,-0.5 477.193,-6.5 477.193,-12.5 477.193,-12.5 477.193,-116.5 477.193,-116.5 477.193,-122.5 471.193,-128.5 465.193,-128.5 465.193,-128.5 356.182,-128.5 356.182,-128.5 350.182,-128.5 344.182,-122.5 344.182,-116.5 344.182,-116.5 344.182,-12.5 344.182,-12.5 344.182,-6.5 350.182,-0.5 356.182,-0.5"/>
<text text-anchor="middle" x="410.688" y="-113.3" font-family="Times,serif" font-size="14.00">Review</text>
<polyline fill="none" stroke="black" points="344.182,-106.5 477.193,-106.5 "/>
<text text-anchor="start" x="352.182" y="-91.3" font-family="Times,serif" font-size="14.00">id :integer</text>
<text text-anchor="start" x="352.182" y="-77.3" font-family="Times,serif" font-size="14.00">rating :integer</text>
<text text-anchor="start" x="352.182" y="-63.3" font-family="Times,serif" font-size="14.00">comment :text</text>
<text text-anchor="start" x="352.182" y="-49.3" font-family="Times,serif" font-size="14.00">user_id :integer</text>
<text text-anchor="start" x="352.182" y="-35.3" font-family="Times,serif" font-size="14.00">beer_id :integer</text>
<text text-anchor="start" x="352.182" y="-21.3" font-family="Times,serif" font-size="14.00">created_at :datetime</text>
<text text-anchor="start" x="352.182" y="-7.3" font-family="Times,serif" font-size="14.00">updated_at :datetime</text>
</g>
<!-- Beer&#45;&gt;Review -->
<g id="edge1" class="edge"><title>Beer&#45;&gt;Review</title>
<path fill="none" stroke="#09fb29" d="M385.928,-683.281C388.201,-673.795 390.184,-664.262 391.688,-655 421.522,-471.224 418.562,-251.126 414.341,-139.008"/>
<ellipse fill="none" stroke="#09fb29" cx="384.918" cy="-687.348" rx="4.00001" ry="4.00001"/>
<polygon fill="#09fb29" stroke="#09fb29" points="414.334,-138.82 418.44,-128.652 414.138,-133.824 413.943,-128.827 413.943,-128.827 413.943,-128.827 414.138,-133.824 409.446,-129.003 414.334,-138.82 414.334,-138.82"/>
</g>
<!-- User -->
<g id="node5" class="node"><title>User</title>
<path fill="none" stroke="black" d="M231.455,-165.5C231.455,-165.5 359.921,-165.5 359.921,-165.5 365.921,-165.5 371.921,-171.5 371.921,-177.5 371.921,-177.5 371.921,-491.5 371.921,-491.5 371.921,-497.5 365.921,-503.5 359.921,-503.5 359.921,-503.5 231.455,-503.5 231.455,-503.5 225.455,-503.5 219.455,-497.5 219.455,-491.5 219.455,-491.5 219.455,-177.5 219.455,-177.5 219.455,-171.5 225.455,-165.5 231.455,-165.5"/>
<text text-anchor="middle" x="295.688" y="-488.3" font-family="Times,serif" font-size="14.00">User</text>
<polyline fill="none" stroke="black" points="219.455,-481.5 371.921,-481.5 "/>
<text text-anchor="start" x="227.455" y="-466.3" font-family="Times,serif" font-size="14.00">id :integer</text>
<text text-anchor="start" x="227.455" y="-452.3" font-family="Times,serif" font-size="14.00">first_name :string</text>
<text text-anchor="start" x="227.455" y="-438.3" font-family="Times,serif" font-size="14.00">middle_name :string</text>
<text text-anchor="start" x="227.455" y="-424.3" font-family="Times,serif" font-size="14.00">last_name :string</text>
<text text-anchor="start" x="227.455" y="-410.3" font-family="Times,serif" font-size="14.00">email :string</text>
<text text-anchor="start" x="227.455" y="-396.3" font-family="Times,serif" font-size="14.00">address1 :string</text>
<text text-anchor="start" x="227.455" y="-382.3" font-family="Times,serif" font-size="14.00">address2 :string</text>
<text text-anchor="start" x="227.455" y="-368.3" font-family="Times,serif" font-size="14.00">city :string</text>
<text text-anchor="start" x="227.455" y="-354.3" font-family="Times,serif" font-size="14.00">state :string</text>
<text text-anchor="start" x="227.455" y="-340.3" font-family="Times,serif" font-size="14.00">country :string</text>
<text text-anchor="start" x="227.455" y="-326.3" font-family="Times,serif" font-size="14.00">postcode :integer</text>
<text text-anchor="start" x="227.455" y="-312.3" font-family="Times,serif" font-size="14.00">password_digest :string</text>
<text text-anchor="start" x="227.455" y="-298.3" font-family="Times,serif" font-size="14.00">remember_digest :string</text>
<text text-anchor="start" x="227.455" y="-284.3" font-family="Times,serif" font-size="14.00">admin :boolean</text>
<text text-anchor="start" x="227.455" y="-270.3" font-family="Times,serif" font-size="14.00">activation_digest :string</text>
<text text-anchor="start" x="227.455" y="-256.3" font-family="Times,serif" font-size="14.00">activated :boolean</text>
<text text-anchor="start" x="227.455" y="-242.3" font-family="Times,serif" font-size="14.00">activated_at :datetime</text>
<text text-anchor="start" x="227.455" y="-228.3" font-family="Times,serif" font-size="14.00">reset_digest :string</text>
<text text-anchor="start" x="227.455" y="-214.3" font-family="Times,serif" font-size="14.00">reset_sent_at :datetime</text>
<text text-anchor="start" x="227.455" y="-200.3" font-family="Times,serif" font-size="14.00">created_at :datetime</text>
<text text-anchor="start" x="227.455" y="-186.3" font-family="Times,serif" font-size="14.00">updated_at :datetime</text>
<text text-anchor="start" x="227.455" y="-172.3" font-family="Times,serif" font-size="14.00">favourite :string</text>
</g>
<!-- Meeting&#45;&gt;User -->
<g id="edge4" class="edge"><title>Meeting&#45;&gt;User</title>
<path fill="none" stroke="#165d73" d="M295.688,-530.18C295.688,-524.924 295.688,-519.484 295.688,-513.908"/>
<polygon fill="#165d73" stroke="#165d73" points="295.688,-530.188 291.188,-540.188 295.688,-535.188 295.688,-540.188 295.688,-540.188 295.688,-540.188 295.688,-535.188 300.188,-540.188 295.688,-530.188 295.688,-530.188"/>
<polygon fill="#165d73" stroke="#165d73" points="295.688,-513.735 300.188,-503.735 295.688,-508.735 295.688,-503.735 295.688,-503.735 295.688,-503.735 295.688,-508.735 291.188,-503.736 295.688,-513.735 295.688,-513.735"/>
</g>
<!-- User&#45;&gt;Review -->
<g id="edge7" class="edge"><title>User&#45;&gt;Review</title>
<path fill="none" stroke="#07ad78" d="M371.068,-157.831C374,-150.999 376.862,-144.328 379.621,-137.899"/>
<ellipse fill="none" stroke="#07ad78" cx="369.443" cy="-161.617" rx="4.00002" ry="4.00002"/>
<polygon fill="#07ad78" stroke="#07ad78" points="379.641,-137.852 387.72,-130.437 381.613,-133.257 383.585,-128.662 383.585,-128.662 383.585,-128.662 381.613,-133.257 379.449,-126.888 379.641,-137.852 379.641,-137.852"/>
</g>
<!-- WebConsole::ConsoleSession -->
<g id="node6" class="node"><title>WebConsole::ConsoleSession</title>
<polygon fill="none" stroke="black" points="476.859,-761.5 476.859,-805.5 660.517,-805.5 660.517,-761.5 476.859,-761.5"/>
<text text-anchor="middle" x="568.688" y="-790.3" font-family="Times,serif" font-size="14.00">WebConsole::ConsoleSession</text>
<polyline fill="none" stroke="black" points="476.859,-783.5 660.517,-783.5 "/>
<text text-anchor="middle" x="568.688" y="-768.3" font-family="Times,serif" font-size="14.00"> </text>
</g>
<!-- ActiveRecord::Base -->
<g id="node7" class="node"><title>ActiveRecord::Base</title>
<ellipse fill="none" stroke="black" cx="306.688" cy="-948.5" rx="81.1422" ry="18"/>
<text text-anchor="middle" x="306.688" y="-944.3" font-family="Times,serif" font-size="14.00">ActiveRecord::Base</text>
</g>
<!-- ActiveRecord::Base&#45;&gt;Beer -->
<g id="edge3" class="edge"><title>ActiveRecord::Base&#45;&gt;Beer</title>
<path fill="none" stroke="black" d="M311.629,-930.364C315.541,-916.796 321.338,-896.693 327.385,-875.719"/>
</g>
<!-- ActiveRecord::Base&#45;&gt;Meeting -->
<g id="edge5" class="edge"><title>ActiveRecord::Base&#45;&gt;Meeting</title>
<path fill="none" stroke="black" d="M297.585,-930.45C290.583,-916.315 281.484,-895.458 277.688,-876 261.945,-795.299 269.799,-772.843 277.688,-691 278.834,-679.112 280.79,-666.482 283.001,-654.501"/>
</g>
<!-- ActiveRecord::Base&#45;&gt;Review -->
<g id="edge6" class="edge"><title>ActiveRecord::Base&#45;&gt;Review</title>
<path fill="none" stroke="black" d="M352.93,-933.686C380.5,-922.797 413.243,-904.581 429.688,-876 445.885,-847.85 468.271,-667.461 426.688,-165 425.714,-153.23 424.141,-140.75 422.353,-128.751"/>
</g>
<!-- ActiveRecord::Base&#45;&gt;User -->
<g id="edge8" class="edge"><title>ActiveRecord::Base&#45;&gt;User</title>
<path fill="none" stroke="black" d="M294.766,-930.551C285.297,-916.474 272.266,-895.647 263.688,-876 202.86,-736.682 166.594,-688.372 199.688,-540 204.32,-519.233 211.3,-498.084 219.424,-477.648"/>
</g>
<!-- Object -->
<g id="node8" class="node"><title>Object</title>
<ellipse fill="none" stroke="black" cx="568.688" cy="-948.5" rx="33.8596" ry="18"/>
<text text-anchor="middle" x="568.688" y="-944.3" font-family="Times,serif" font-size="14.00">Object</text>
</g>
<!-- Object&#45;&gt;WebConsole::ConsoleSession -->
<g id="edge9" class="edge"><title>Object&#45;&gt;WebConsole::ConsoleSession</title>
<path fill="none" stroke="black" d="M568.688,-930.364C568.688,-900.367 568.688,-838.429 568.688,-805.753"/>
</g>
</g>
</svg>
