<?xml version="1.0" encoding="UTF-8" standalone="no"?>
<!DOCTYPE svg PUBLIC "-//W3C//DTD SVG 1.1//EN"
 "http://www.w3.org/Graphics/SVG/1.1/DTD/svg11.dtd">
<!-- Generated by graphviz version 2.38.0 (20140413.2041)
 -->
<!-- Title: models_diagram Pages: 1 -->
<svg width="609pt" height="369pt"
 viewBox="0.00 0.00 608.52 369.00" xmlns="http://www.w3.org/2000/svg" xmlns:xlink="http://www.w3.org/1999/xlink">
<g id="graph0" class="graph" transform="scale(1 1) rotate(0) translate(4 365)">
<title>models_diagram</title>
<polygon fill="none" stroke="none" points="-4,4 -4,-365 604.517,-365 604.517,4 -4,4"/>
<!-- _diagram_info -->
<g id="node1" class="node"><title>_diagram_info</title>
<text text-anchor="start" x="8" y="-346.6" font-family="Times,serif" font-size="13.00">Models diagram</text>
<text text-anchor="start" x="8" y="-333.6" font-family="Times,serif" font-size="13.00">Date: Sep 23 2015 &#45; 11:47</text>
<text text-anchor="start" x="8" y="-320.6" font-family="Times,serif" font-size="13.00">Migration version: 20150922032855</text>
<text text-anchor="start" x="8" y="-307.6" font-family="Times,serif" font-size="13.00">Generated by RailRoady 1.3.1</text>
<text text-anchor="start" x="8" y="-294.6" font-family="Times,serif" font-size="13.00">http://railroady.prestonlee.com</text>
</g>
<!-- Beer -->
<g id="node2" class="node"><title>Beer</title>
<ellipse fill="none" stroke="black" cx="333.688" cy="-234" rx="27" ry="18"/>
<text text-anchor="middle" x="333.688" y="-229.8" font-family="Times,serif" font-size="14.00">Beer</text>
</g>
<!-- Meeting -->
<g id="node3" class="node"><title>Meeting</title>
<ellipse fill="none" stroke="black" cx="282.688" cy="-162" rx="39.6558" ry="18"/>
<text text-anchor="middle" x="282.688" y="-157.8" font-family="Times,serif" font-size="14.00">Meeting</text>
</g>
<!-- Beer&#45;&gt;Meeting -->
<g id="edge2" class="edge"><title>Beer&#45;&gt;Meeting</title>
<path fill="none" stroke="#f0a9a4" d="M316.406,-209.28C311.384,-202.387 305.886,-194.841 300.814,-187.88"/>
<polygon fill="#f0a9a4" stroke="#f0a9a4" points="316.481,-209.382 318.732,-220.115 319.425,-213.424 322.369,-217.465 322.369,-217.465 322.369,-217.465 319.425,-213.424 326.006,-214.815 316.481,-209.382 316.481,-209.382"/>
<polygon fill="#f0a9a4" stroke="#f0a9a4" points="300.574,-187.55 298.322,-176.817 297.63,-183.508 294.685,-179.467 294.685,-179.467 294.685,-179.467 297.63,-183.508 291.048,-182.117 300.574,-187.55 300.574,-187.55"/>
</g>
<!-- Review -->
<g id="node4" class="node"><title>Review</title>
<ellipse fill="none" stroke="black" cx="350.688" cy="-18" rx="37.2421" ry="18"/>
<text text-anchor="middle" x="350.688" y="-13.8" font-family="Times,serif" font-size="14.00">Review</text>
</g>
<!-- Beer&#45;&gt;Review -->
<g id="edge1" class="edge"><title>Beer&#45;&gt;Review</title>
<path fill="none" stroke="#630dbf" d="M335.7,-207.67C338.921,-167.116 345.211,-87.9488 348.525,-46.2266"/>
<ellipse fill="none" stroke="#630dbf" cx="335.367" cy="-211.862" rx="4" ry="4"/>
<polygon fill="#630dbf" stroke="#630dbf" points="348.527,-46.201 353.805,-36.5888 348.923,-41.2167 349.319,-36.2325 349.319,-36.2325 349.319,-36.2325 348.923,-41.2167 344.833,-35.8761 348.527,-46.201 348.527,-46.201"/>
</g>
<!-- User -->
<g id="node5" class="node"><title>User</title>
<ellipse fill="none" stroke="black" cx="282.688" cy="-90" rx="27" ry="18"/>
<text text-anchor="middle" x="282.688" y="-85.8" font-family="Times,serif" font-size="14.00">User</text>
</g>
<!-- Meeting&#45;&gt;User -->
<g id="edge4" class="edge"><title>Meeting&#45;&gt;User</title>
<path fill="none" stroke="#e68ebe" d="M282.688,-133.665C282.688,-128.687 282.688,-123.491 282.688,-118.507"/>
<polygon fill="#e68ebe" stroke="#e68ebe" points="282.688,-133.697 278.188,-143.697 282.688,-138.697 282.688,-143.697 282.688,-143.697 282.688,-143.697 282.688,-138.697 287.188,-143.697 282.688,-133.697 282.688,-133.697"/>
<polygon fill="#e68ebe" stroke="#e68ebe" points="282.688,-118.104 287.188,-108.104 282.688,-113.104 282.688,-108.104 282.688,-108.104 282.688,-108.104 282.688,-113.104 278.188,-108.104 282.688,-118.104 282.688,-118.104"/>
</g>
<!-- User&#45;&gt;Review -->
<g id="edge7" class="edge"><title>User&#45;&gt;Review</title>
<path fill="none" stroke="#cd7540" d="M302.614,-68.4882C310.572,-60.2957 319.78,-50.8172 327.994,-42.3615"/>
<ellipse fill="none" stroke="#cd7540" cx="299.565" cy="-71.6268" rx="4.00002" ry="4.00002"/>
<polygon fill="#cd7540" stroke="#cd7540" points="328.226,-42.1226 338.421,-38.0853 331.71,-38.5362 335.194,-34.9498 335.194,-34.9498 335.194,-34.9498 331.71,-38.5362 331.966,-31.8142 328.226,-42.1226 328.226,-42.1226"/>
</g>
<!-- WebConsole::ConsoleSession -->
<g id="node6" class="node"><title>WebConsole::ConsoleSession</title>
<polygon fill="none" stroke="black" points="600.346,-252 417.029,-252 417.029,-216 600.346,-216 600.346,-252"/>
<text text-anchor="middle" x="508.688" y="-229.8" font-family="Times,serif" font-size="14.00">WebConsole::ConsoleSession</text>
</g>
<!-- ActiveRecord::Base -->
<g id="node7" class="node"><title>ActiveRecord::Base</title>
<ellipse fill="none" stroke="black" cx="306.688" cy="-324.5" rx="81.1422" ry="18"/>
<text text-anchor="middle" x="306.688" y="-320.3" font-family="Times,serif" font-size="14.00">ActiveRecord::Base</text>
</g>
<!-- ActiveRecord::Base&#45;&gt;Beer -->
<g id="edge3" class="edge"><title>ActiveRecord::Base&#45;&gt;Beer</title>
<path fill="none" stroke="black" d="M311.894,-306.436C316.705,-290.665 323.812,-267.37 328.589,-251.711"/>
</g>
<!-- ActiveRecord::Base&#45;&gt;Meeting -->
<g id="edge5" class="edge"><title>ActiveRecord::Base&#45;&gt;Meeting</title>
<path fill="none" stroke="black" d="M304.119,-306.324C299.5,-275.432 289.844,-210.855 285.238,-180.053"/>
</g>
<!-- ActiveRecord::Base&#45;&gt;Review -->
<g id="edge6" class="edge"><title>ActiveRecord::Base&#45;&gt;Review</title>
<path fill="none" stroke="black" d="M327.79,-306.942C342.65,-293.849 361.328,-274.132 369.688,-252 398.584,-175.495 370.22,-75.0726 356.833,-35.7819"/>
</g>
<!-- ActiveRecord::Base&#45;&gt;User -->
<g id="edge8" class="edge"><title>ActiveRecord::Base&#45;&gt;User</title>
<path fill="none" stroke="black" d="M294.599,-306.435C277.091,-280.562 245.482,-229.198 233.688,-180 229.958,-164.441 227.856,-158.899 233.688,-144 239.991,-127.897 253.738,-113.753 265.071,-104.137"/>
</g>
<!-- Object -->
<g id="node8" class="node"><title>Object</title>
<ellipse fill="none" stroke="black" cx="508.688" cy="-324.5" rx="33.8596" ry="18"/>
<text text-anchor="middle" x="508.688" y="-320.3" font-family="Times,serif" font-size="14.00">Object</text>
</g>
<!-- Object&#45;&gt;WebConsole::ConsoleSession -->
<g id="edge9" class="edge"><title>Object&#45;&gt;WebConsole::ConsoleSession</title>
<path fill="none" stroke="black" d="M508.688,-306.436C508.688,-290.765 508.688,-267.666 508.688,-252.011"/>
</g>
</g>
</svg>
